<?xml version="1.0" encoding="utf-8"?>
<!-- Generator: Adobe Illustrator 27.5.0, SVG Export Plug-In . SVG Version: 6.00 Build 0)  -->
<svg version="1.1" xmlns="http://www.w3.org/2000/svg" xmlns:xlink="http://www.w3.org/1999/xlink" x="0px" y="0px"
	 viewBox="0 0 500 500" style="enable-background:new 0 0 500 500;" xml:space="preserve">

<g id="objects">
	<g>
		<path style="fill:#606060;" d="M57.474,358.302c3.916,1.537,8.084,2.837,12.365,3.745c11.148,2.363,20.621,7.902,29.022,15.388
			c7.522,6.703,9.459,15.15,7.029,24.698c-1.106,4.345-4.102,7.374-7.737,9.821c-2.891,1.947-5.949,3.646-8.651,5.871
			c-3.329,2.741-3.619,3.808-1.882,7.75c2.146,4.873,5.674,8.667,9.643,12.09c3.72,3.208,7.775,5.91,12.334,7.785
			c0.779,0.32,1.534,0.568,1.328,1.553c-0.252,1.206-1.286,0.992-2.075,0.818c-1.03-0.227-1.954-0.597-2.408,0.835
			c-0.07,0.221-0.681,0.427-1.009,0.385c-2.206-0.279-4.65-0.122-6.553-1.054c-4.425-2.168-8.947-4.318-12.278-8.217
			c-2.444-2.861-3.957-6.071-4.249-9.833c-0.216-2.784-1.331-5.376-1.51-8.204c-0.497-7.856,2.179-14.07,8.699-18.623
			c3.238-2.261,6.775-4.104,9.685-6.826c2.467-2.309,2.458-2.848,0.245-5.296c-8.225-9.102-18.879-14.405-29.927-19.039
			c-5.32-2.232-10.766-4.161-16.789-6.471c3.088,4.226,6.176,7.41,9.768,9.991c-0.261,1.139-1.08,0.547-1.574,0.792
			c-0.023,0.14-0.052,0.287-0.07,0.436c-0.149,1.234,0.771,3.068-0.589,3.567c-1.675,0.615-3.325-0.816-4.591-1.821
			c-2.051-1.627-3.828-3.626-5.591-5.585c-4.155-4.618-8.445-9.109-12.978-13.348c-1.38-1.29-0.937-2.999-1.755-4.366
			c-0.29-0.485,0.431-0.926,1.052-0.849c5.62,0.698,11.042-0.937,16.565-1.379c6.323-0.506,12.634-1.471,19.002-0.557
			c1.142,0.164,1.148,0.116,2.766,1.534C69.017,356.285,63.05,356.66,57.474,358.302z M100.316,405.029
			c3.068-0.279,3.517-2.144,4.071-4.671C102.86,402.11,101.722,403.417,100.316,405.029z"/>
	</g>
</g>

</svg>
